<svg width="24" height="25" viewBox="0 0 24 25" fill="none" xmlns="http://www.w3.org/2000/svg">
<g id="material-symbols:delete-outline">
<path id="Vector" d="M5 6.35H4.15V4.65H9H9.15V4.5V3.65H14.85V4.5V4.65H15H19.85V6.35H19H18.85V6.5V19.5C18.85 20.0099 18.6703 20.4429 18.3068 20.807C17.9435 21.171 17.5107 21.3506 17.0002 21.35H17H7C6.49006 21.35 6.05747 21.1703 5.69407 20.8069C5.33068 20.4436 5.15064 20.0106 5.15 19.4999C5.15 19.4999 5.15 19.4999 5.15 19.4998L5.15 6.5V6.35H5ZM17.15 6.5V6.35H17H7H6.85V6.5V19.5V19.65H7H17H17.15V19.5V6.5ZM10.85 8.65V17.35H9.15V8.65H10.85ZM14.85 8.65V17.35H13.15V8.65H14.85Z" fill="#D7260F" stroke="#F9F9F9" stroke-width="0.3"/>
</g>
</svg>
