<svg width="20" height="20" viewBox="0 0 20 20" fill="none" xmlns="http://www.w3.org/2000/svg">
<path d="M2.5 2.70833C2.5 1.90333 3.15333 1.25 3.95833 1.25H8.54167C8.70743 1.25 8.8664 1.31585 8.98361 1.43306C9.10082 1.55027 9.16667 1.70924 9.16667 1.875C9.16667 2.04076 9.10082 2.19973 8.98361 2.31694C8.8664 2.43415 8.70743 2.5 8.54167 2.5H3.95833C3.90308 2.5 3.85009 2.52195 3.81102 2.56102C3.77195 2.60009 3.75 2.65308 3.75 2.70833V17.2917C3.75 17.4067 3.84333 17.5 3.95833 17.5H8.54167C8.70743 17.5 8.8664 17.5658 8.98361 17.6831C9.10082 17.8003 9.16667 17.9592 9.16667 18.125C9.16667 18.2908 9.10082 18.4497 8.98361 18.5669C8.8664 18.6842 8.70743 18.75 8.54167 18.75H3.95833C3.57156 18.75 3.20063 18.5964 2.92714 18.3229C2.65365 18.0494 2.5 17.6784 2.5 17.2917V2.70833ZM15.8383 10.625H8.95833C8.79257 10.625 8.6336 10.5592 8.51639 10.4419C8.39918 10.3247 8.33333 10.1658 8.33333 10C8.33333 9.83424 8.39918 9.67527 8.51639 9.55806C8.6336 9.44085 8.79257 9.375 8.95833 9.375H15.8383L13.0883 6.47167C12.9788 6.35064 12.921 6.19157 12.9272 6.02846C12.9334 5.86536 13.0032 5.71115 13.1216 5.59882C13.24 5.48649 13.3977 5.42494 13.5609 5.42734C13.7241 5.42975 13.8799 5.4959 13.995 5.61167L17.745 9.57C17.8551 9.68611 17.9164 9.84001 17.9164 10C17.9164 10.16 17.8551 10.3139 17.745 10.43L13.995 14.3883C13.8799 14.5041 13.7241 14.5703 13.5609 14.5727C13.3977 14.5751 13.24 14.5135 13.1216 14.4012C13.0032 14.2888 12.9334 14.1346 12.9272 13.9715C12.921 13.8084 12.9788 13.6494 13.0883 13.5283L15.8383 10.625Z" fill="#15171C"/>
</svg>
