<svg width="226" height="34" viewBox="0 0 226 34" fill="none" xmlns="http://www.w3.org/2000/svg">
<path fill-rule="evenodd" clip-rule="evenodd" d="M5.24805 1.36261C1.78384 3.19011 0 6.10075 0 9.92688V12.377L2.4111 12.6963C3.73711 12.8719 5.25554 13.3429 5.78485 13.7425C6.31415 14.1427 6.91792 14.4769 7.12635 14.4854C7.33477 14.4944 8.3399 12.8176 9.36001 10.7596C11.9076 5.6208 12.4948 5.74902 14.5156 11.8821C16.3359 17.406 16.8042 18.1724 17.2581 16.3668C17.7804 14.2898 19.5747 13.0071 22.4287 12.6694C23.8541 12.5013 25.1391 12.171 25.2846 11.9355C25.6789 11.2989 28.2 11.4186 28.8892 12.1066C29.2191 12.4359 29.489 13.289 29.489 14.0025C29.489 14.7159 29.2191 15.569 28.8892 15.8983C28.1625 16.6237 25.6699 16.6916 25.2406 15.9981C25.0707 15.7237 23.8561 15.4992 22.5411 15.4992H20.1505L18.778 18.9916C16.7548 24.1388 16.0335 23.8524 13.7439 16.9924C12.7358 13.9725 11.7546 11.5977 11.5637 11.7155C11.3728 11.8332 10.5636 13.294 9.76486 14.9614C8.14897 18.337 7.32078 18.6832 5.49795 16.7465C4.2969 15.4708 0.999628 14.9399 0.999628 16.0231C0.999628 18.1205 7.20582 25.8132 12.3599 30.1043C17.7694 34.6079 18.4011 34.6024 23.7731 30.0085C28.5419 25.9299 32.341 21.4412 34.3072 17.5622C36.2145 13.7999 36.5589 8.59579 35.0909 5.72507C33.2611 2.14639 30.4552 0.531921 26.0653 0.531921C23.5068 0.531921 22.7365 0.770899 20.5424 2.24418L17.9933 3.95693L15.4443 2.24418C13.2126 0.745455 12.5113 0.534416 9.82134 0.551878C8.01602 0.563852 6.12872 0.898121 5.24805 1.36261Z" fill="#0055C5"/>
<path d="M53.1378 24V10.9091H55.9055V16.3104H61.5241V10.9091H64.2855V24H61.5241V18.5923H55.9055V24H53.1378ZM70.9908 24.1918C69.9808 24.1918 69.1115 23.9872 68.3828 23.5781C67.6584 23.1648 67.1001 22.581 66.7081 21.8267C66.3161 21.0682 66.12 20.1712 66.12 19.1357C66.12 18.1257 66.3161 17.2393 66.7081 16.4766C67.1001 15.7138 67.652 15.1193 68.3636 14.6932C69.0795 14.267 69.919 14.054 70.8821 14.054C71.5298 14.054 72.1328 14.1584 72.6911 14.3672C73.2536 14.5717 73.7436 14.8807 74.1612 15.294C74.5831 15.7074 74.9112 16.2273 75.1456 16.8537C75.38 17.4759 75.4972 18.2045 75.4972 19.0398V19.7876H67.2067V18.1001H72.9339C72.9339 17.7081 72.8487 17.3608 72.6783 17.0582C72.5078 16.7557 72.2713 16.5192 71.9688 16.3487C71.6705 16.174 71.3232 16.0866 70.9268 16.0866C70.5135 16.0866 70.147 16.1825 69.8274 16.3743C69.5121 16.5618 69.2649 16.8153 69.0859 17.1349C68.907 17.4503 68.8153 17.8018 68.8111 18.1896V19.794C68.8111 20.2798 68.9006 20.6996 69.0795 21.0533C69.2628 21.407 69.5206 21.6797 69.853 21.8714C70.1854 22.0632 70.5795 22.1591 71.0355 22.1591C71.3381 22.1591 71.6151 22.1165 71.8665 22.0312C72.1179 21.946 72.3331 21.8182 72.5121 21.6477C72.6911 21.4773 72.8274 21.2685 72.9212 21.0213L75.4396 21.1875C75.3118 21.7926 75.0497 22.321 74.6534 22.7727C74.2614 23.2202 73.7543 23.5696 73.1321 23.821C72.5142 24.0682 71.8004 24.1918 70.9908 24.1918ZM80.0739 24.1854C79.4474 24.1854 78.8892 24.0767 78.3991 23.8594C77.9091 23.6378 77.5213 23.3118 77.2358 22.8814C76.9545 22.4467 76.8139 21.9055 76.8139 21.2578C76.8139 20.7124 76.9141 20.2543 77.1143 19.8835C77.3146 19.5128 77.5874 19.2145 77.9325 18.9886C78.2777 18.7628 78.6697 18.5923 79.1087 18.4773C79.5518 18.3622 80.0163 18.2812 80.5021 18.2344C81.0732 18.1747 81.5334 18.1193 81.8828 18.0682C82.2322 18.0128 82.4858 17.9318 82.6435 17.8253C82.8011 17.7187 82.88 17.5611 82.88 17.3523V17.3139C82.88 16.9091 82.7521 16.5959 82.4964 16.3743C82.245 16.1527 81.8871 16.0419 81.4226 16.0419C80.9325 16.0419 80.5426 16.1506 80.2528 16.3679C79.9631 16.581 79.7713 16.8494 79.6776 17.1733L77.1591 16.9688C77.2869 16.3722 77.5384 15.8565 77.9134 15.4219C78.2884 14.983 78.772 14.6463 79.3643 14.4119C79.9609 14.1733 80.6513 14.054 81.4354 14.054C81.9808 14.054 82.5028 14.1179 83.0014 14.2457C83.5043 14.3736 83.9496 14.5717 84.3374 14.8402C84.7294 15.1087 85.0384 15.4538 85.2642 15.8757C85.4901 16.2933 85.603 16.794 85.603 17.3778V24H83.0206V22.6385H82.9439C82.7862 22.9453 82.5753 23.2159 82.3111 23.4503C82.0469 23.6804 81.7294 23.8615 81.3587 23.9936C80.9879 24.1214 80.5597 24.1854 80.0739 24.1854ZM80.8537 22.3061C81.2543 22.3061 81.608 22.2273 81.9148 22.0696C82.2216 21.9077 82.4624 21.6903 82.6371 21.4176C82.8118 21.1449 82.8991 20.8359 82.8991 20.4908V19.4489C82.8139 19.5043 82.6967 19.5554 82.5476 19.6023C82.4027 19.6449 82.2386 19.6854 82.0554 19.7237C81.8722 19.7578 81.6889 19.7898 81.5057 19.8196C81.3224 19.8452 81.1562 19.8686 81.0071 19.8899C80.6875 19.9368 80.4084 20.0114 80.1697 20.1136C79.9311 20.2159 79.7457 20.3544 79.6136 20.5291C79.4815 20.6996 79.4155 20.9126 79.4155 21.1683C79.4155 21.5391 79.5497 21.8224 79.8182 22.0185C80.0909 22.2102 80.4361 22.3061 80.8537 22.3061ZM90.4386 10.9091V24H87.7156V10.9091H90.4386ZM97.8422 14.1818V16.2273H91.9295V14.1818H97.8422ZM93.2718 11.8295H95.9949V20.983C95.9949 21.2344 96.0332 21.4304 96.1099 21.571C96.1866 21.7074 96.2931 21.8033 96.4295 21.8587C96.5701 21.9141 96.7321 21.9418 96.9153 21.9418C97.0431 21.9418 97.171 21.9311 97.2988 21.9098C97.4267 21.8842 97.5247 21.8651 97.5929 21.8523L98.0211 23.8786C97.8848 23.9212 97.693 23.9702 97.4458 24.0256C97.1987 24.0852 96.8983 24.1214 96.5446 24.1342C95.8883 24.1598 95.313 24.0724 94.8187 23.8722C94.3287 23.6719 93.9473 23.3608 93.6745 22.9389C93.4018 22.517 93.2676 21.9844 93.2718 21.3409V11.8295ZM102.55 18.3239V24H99.8269V10.9091H102.473V15.9141H102.588C102.81 15.3345 103.168 14.8807 103.662 14.5526C104.156 14.2202 104.776 14.054 105.522 14.054C106.204 14.054 106.798 14.2031 107.306 14.5014C107.817 14.7955 108.213 15.2195 108.494 15.7734C108.78 16.3232 108.921 16.9815 108.916 17.7486V24H106.193V18.2344C106.198 17.6293 106.044 17.1584 105.733 16.8217C105.426 16.4851 104.996 16.3168 104.442 16.3168C104.071 16.3168 103.743 16.3956 103.458 16.5533C103.176 16.7109 102.955 16.9411 102.793 17.2436C102.635 17.5419 102.554 17.902 102.55 18.3239ZM115.276 24V10.9091H123.944V13.1911H118.044V16.3104H123.369V18.5923H118.044V24H115.276ZM128.431 24.1854C127.805 24.1854 127.247 24.0767 126.757 23.8594C126.267 23.6378 125.879 23.3118 125.593 22.8814C125.312 22.4467 125.171 21.9055 125.171 21.2578C125.171 20.7124 125.271 20.2543 125.472 19.8835C125.672 19.5128 125.945 19.2145 126.29 18.9886C126.635 18.7628 127.027 18.5923 127.466 18.4773C127.909 18.3622 128.374 18.2812 128.86 18.2344C129.431 18.1747 129.891 18.1193 130.24 18.0682C130.59 18.0128 130.843 17.9318 131.001 17.8253C131.159 17.7187 131.237 17.5611 131.237 17.3523V17.3139C131.237 16.9091 131.11 16.5959 130.854 16.3743C130.602 16.1527 130.244 16.0419 129.78 16.0419C129.29 16.0419 128.9 16.1506 128.61 16.3679C128.32 16.581 128.129 16.8494 128.035 17.1733L125.517 16.9688C125.644 16.3722 125.896 15.8565 126.271 15.4219C126.646 14.983 127.129 14.6463 127.722 14.4119C128.318 14.1733 129.009 14.054 129.793 14.054C130.338 14.054 130.86 14.1179 131.359 14.2457C131.862 14.3736 132.307 14.5717 132.695 14.8402C133.087 15.1087 133.396 15.4538 133.622 15.8757C133.847 16.2933 133.96 16.794 133.96 17.3778V24H131.378V22.6385H131.301C131.144 22.9453 130.933 23.2159 130.669 23.4503C130.404 23.6804 130.087 23.8615 129.716 23.9936C129.345 24.1214 128.917 24.1854 128.431 24.1854ZM129.211 22.3061C129.612 22.3061 129.965 22.2273 130.272 22.0696C130.579 21.9077 130.82 21.6903 130.994 21.4176C131.169 21.1449 131.257 20.8359 131.257 20.4908V19.4489C131.171 19.5043 131.054 19.5554 130.905 19.6023C130.76 19.6449 130.596 19.6854 130.413 19.7237C130.23 19.7578 130.046 19.7898 129.863 19.8196C129.68 19.8452 129.514 19.8686 129.365 19.8899C129.045 19.9368 128.766 20.0114 128.527 20.1136C128.289 20.2159 128.103 20.3544 127.971 20.5291C127.839 20.6996 127.773 20.9126 127.773 21.1683C127.773 21.5391 127.907 21.8224 128.176 22.0185C128.448 22.2102 128.794 22.3061 129.211 22.3061ZM136.073 24V14.1818H138.668V15.9141H138.783C138.988 15.3388 139.329 14.8849 139.806 14.5526C140.283 14.2202 140.854 14.054 141.519 14.054C142.192 14.054 142.765 14.2223 143.238 14.5589C143.711 14.8913 144.027 15.343 144.184 15.9141H144.287C144.487 15.3516 144.849 14.902 145.373 14.5653C145.902 14.2244 146.526 14.054 147.246 14.054C148.162 14.054 148.906 14.3459 149.477 14.9297C150.052 15.5092 150.34 16.3317 150.34 17.397V24H147.623V17.9339C147.623 17.3885 147.479 16.9794 147.189 16.7067C146.899 16.4339 146.537 16.2976 146.102 16.2976C145.608 16.2976 145.222 16.4553 144.945 16.7706C144.668 17.0817 144.53 17.4929 144.53 18.0043V24H141.89V17.8764C141.89 17.3949 141.751 17.0114 141.474 16.7259C141.202 16.4403 140.841 16.2976 140.394 16.2976C140.091 16.2976 139.819 16.3743 139.576 16.5277C139.337 16.6768 139.148 16.8878 139.007 17.1605C138.866 17.429 138.796 17.7443 138.796 18.1065V24H136.073ZM152.491 24V14.1818H155.214V24H152.491ZM153.859 12.9162C153.454 12.9162 153.107 12.782 152.817 12.5135C152.531 12.2408 152.389 11.9148 152.389 11.5355C152.389 11.1605 152.531 10.8388 152.817 10.5703C153.107 10.2976 153.454 10.1612 153.859 10.1612C154.264 10.1612 154.609 10.2976 154.894 10.5703C155.184 10.8388 155.329 11.1605 155.329 11.5355C155.329 11.9148 155.184 12.2408 154.894 12.5135C154.609 12.782 154.264 12.9162 153.859 12.9162ZM160.118 10.9091V24H157.395V10.9091H160.118ZM163.981 27.6818C163.635 27.6818 163.312 27.6541 163.009 27.5987C162.711 27.5476 162.464 27.4815 162.268 27.4006L162.881 25.3679C163.201 25.4659 163.488 25.5192 163.744 25.5277C164.004 25.5362 164.228 25.4766 164.415 25.3487C164.607 25.2209 164.763 25.0036 164.882 24.6967L165.042 24.2812L161.52 14.1818H164.383L166.416 21.392H166.518L168.57 14.1818H171.453L167.637 25.0611C167.454 25.5895 167.204 26.0497 166.889 26.4418C166.578 26.8381 166.184 27.1428 165.706 27.3558C165.229 27.5732 164.654 27.6818 163.981 27.6818ZM188.614 15.4922H185.814C185.763 15.13 185.659 14.8082 185.501 14.527C185.343 14.2415 185.141 13.9986 184.894 13.7983C184.647 13.598 184.361 13.4446 184.037 13.3381C183.718 13.2315 183.37 13.1783 182.995 13.1783C182.318 13.1783 181.728 13.3466 181.225 13.6832C180.722 14.0156 180.332 14.5014 180.055 15.1406C179.778 15.7756 179.64 16.5469 179.64 17.4545C179.64 18.3878 179.778 19.1719 180.055 19.8068C180.336 20.4418 180.728 20.9212 181.231 21.245C181.734 21.5689 182.316 21.7308 182.976 21.7308C183.347 21.7308 183.69 21.6818 184.005 21.5838C184.325 21.4858 184.608 21.343 184.855 21.1555C185.103 20.9638 185.307 20.7315 185.469 20.4588C185.635 20.1861 185.75 19.875 185.814 19.5256L188.614 19.5384C188.542 20.1392 188.36 20.7188 188.071 21.277C187.785 21.831 187.4 22.3274 186.914 22.7663C186.432 23.201 185.857 23.5462 185.188 23.8018C184.523 24.0533 183.771 24.179 182.931 24.179C181.764 24.179 180.72 23.9148 179.799 23.3864C178.883 22.858 178.159 22.093 177.626 21.0916C177.098 20.0902 176.833 18.8778 176.833 17.4545C176.833 16.027 177.102 14.8125 177.639 13.8111C178.176 12.8097 178.904 12.0469 179.825 11.5227C180.745 10.9943 181.781 10.7301 182.931 10.7301C183.69 10.7301 184.393 10.8366 185.041 11.0497C185.693 11.2628 186.27 11.5739 186.773 11.983C187.276 12.3878 187.685 12.8842 188 13.4723C188.32 14.0604 188.525 14.7337 188.614 15.4922ZM193.271 10.9091V24H190.548V10.9091H193.271ZM195.452 24V14.1818H198.175V24H195.452ZM196.82 12.9162C196.415 12.9162 196.068 12.782 195.778 12.5135C195.492 12.2408 195.35 11.9148 195.35 11.5355C195.35 11.1605 195.492 10.8388 195.778 10.5703C196.068 10.2976 196.415 10.1612 196.82 10.1612C197.225 10.1612 197.57 10.2976 197.855 10.5703C198.145 10.8388 198.29 11.1605 198.29 11.5355C198.29 11.9148 198.145 12.2408 197.855 12.5135C197.57 12.782 197.225 12.9162 196.82 12.9162ZM203.079 18.3239V24H200.356V14.1818H202.951V15.9141H203.066C203.284 15.343 203.648 14.8913 204.159 14.5589C204.671 14.2223 205.291 14.054 206.02 14.054C206.701 14.054 207.296 14.2031 207.803 14.5014C208.31 14.7997 208.704 15.2259 208.985 15.7798C209.267 16.3295 209.407 16.9858 209.407 17.7486V24H206.684V18.2344C206.689 17.6335 206.535 17.1648 206.224 16.8281C205.913 16.4872 205.485 16.3168 204.939 16.3168C204.573 16.3168 204.249 16.3956 203.968 16.5533C203.691 16.7109 203.473 16.9411 203.316 17.2436C203.162 17.5419 203.083 17.902 203.079 18.3239ZM211.553 24V14.1818H214.276V24H211.553ZM212.921 12.9162C212.517 12.9162 212.169 12.782 211.879 12.5135C211.594 12.2408 211.451 11.9148 211.451 11.5355C211.451 11.1605 211.594 10.8388 211.879 10.5703C212.169 10.2976 212.517 10.1612 212.921 10.1612C213.326 10.1612 213.671 10.2976 213.957 10.5703C214.247 10.8388 214.392 11.1605 214.392 11.5355C214.392 11.9148 214.247 12.2408 213.957 12.5135C213.671 12.782 213.326 12.9162 212.921 12.9162ZM220.894 24.1918C219.888 24.1918 219.023 23.9787 218.299 23.5526C217.578 23.1222 217.025 22.5256 216.637 21.7628C216.253 21 216.061 20.1222 216.061 19.1293C216.061 18.1236 216.255 17.2415 216.643 16.483C217.035 15.7202 217.591 15.1257 218.311 14.6996C219.032 14.2692 219.888 14.054 220.881 14.054C221.738 14.054 222.488 14.2095 223.131 14.5206C223.775 14.8317 224.284 15.2685 224.659 15.831C225.034 16.3935 225.24 17.054 225.279 17.8125H222.709C222.637 17.3224 222.445 16.9283 222.134 16.63C221.827 16.3274 221.424 16.1761 220.926 16.1761C220.504 16.1761 220.135 16.2912 219.82 16.5213C219.509 16.7472 219.266 17.0774 219.091 17.5121C218.917 17.9467 218.829 18.473 218.829 19.0909C218.829 19.7173 218.914 20.25 219.085 20.6889C219.26 21.1278 219.505 21.4624 219.82 21.6925C220.135 21.9226 220.504 22.0376 220.926 22.0376C221.237 22.0376 221.516 21.9737 221.763 21.8459C222.015 21.718 222.221 21.5327 222.383 21.2898C222.549 21.0426 222.658 20.7464 222.709 20.4013H225.279C225.236 21.1513 225.032 21.8118 224.665 22.3828C224.303 22.9496 223.802 23.3928 223.163 23.7124C222.524 24.032 221.767 24.1918 220.894 24.1918Z" fill="black"/>
</svg>
