<svg width="528" height="401" viewBox="0 0 528 401" fill="none" xmlns="http://www.w3.org/2000/svg">
<rect width="528" height="401" rx="8" fill="#EAECF0"/>
<path d="M106.231 308.627C106.985 307.604 108.18 307 109.451 307H417.159C418.421 307 419.609 307.596 420.364 308.608L447.23 344.608C449.198 347.246 447.316 351 444.024 351H82.9173C79.6364 351 77.7508 347.268 79.6974 344.627L106.231 308.627Z" fill="#F5F5F7"/>
<g clip-path="url(#clip0_143_1193)">
<path d="M136.213 146.397V329.894H186.556L264 268.106L341.445 329.894H391.788V146.397H341.445L264 207.907L186.556 146.397H136.213Z" fill="#BDD3FF"/>
<path d="M314.97 146.397L324.593 329.894H341.444V146.397H314.97Z" fill="#99C2FF"/>
<path d="M213.03 146.397L203.407 329.894H186.556V146.397H213.03Z" fill="#99C2FF"/>
<path d="M203.407 72.0724V88.9235L264 94.5402L324.593 88.9235V72.0724H203.407Z" fill="#BDD3FF"/>
<path d="M203.407 327.647H228.051L264 316.413L299.949 327.647H324.593V88.9236H203.407V327.647Z" fill="#DEE9FF"/>
<path d="M299.949 121.293H276.005V97.3489H251.995V121.293H228.051V145.303H251.995V169.247H276.005V145.303H299.949V121.293Z" fill="white"/>
<path d="M228.051 239.923V328.209H264L275.234 284.066L264 239.923H228.051Z" fill="#E4F2FF"/>
<path d="M299.949 239.926H264V328.209H299.949V239.926Z" fill="#E6F3FF"/>
<path d="M299.949 116.588H280.217V96.8569C280.217 94.5304 278.331 92.6443 276.005 92.6443H251.995C249.669 92.6443 247.782 94.5304 247.782 96.8569V116.588H228.051C225.725 116.588 223.838 118.475 223.838 120.801V144.811C223.838 147.137 225.725 149.023 228.051 149.023H247.782V168.755C247.782 171.081 249.669 172.967 251.995 172.967H276.005C278.331 172.967 280.217 171.081 280.217 168.755V149.023H299.949C302.276 149.023 304.161 147.137 304.161 144.811V120.801C304.161 118.475 302.276 116.588 299.949 116.588ZM295.736 140.598H276.005C273.678 140.598 271.792 142.484 271.792 144.811V164.542H256.208V144.811C256.208 142.484 254.322 140.598 251.996 140.598H232.264V125.014H251.996C254.322 125.014 256.208 123.128 256.208 120.802V101.07H271.792V120.801C271.792 123.128 273.678 125.014 276.005 125.014H295.736V140.598Z" fill="#404756"/>
<path d="M358.191 300.428C360.518 300.428 362.403 298.542 362.403 296.215V277.146C362.403 274.819 360.518 272.933 358.191 272.933C355.864 272.933 353.978 274.819 353.978 277.146V296.215C353.978 298.542 355.864 300.428 358.191 300.428Z" fill="#404756"/>
<path d="M358.191 249.787C360.518 249.787 362.403 247.9 362.403 245.574V226.505C362.403 224.178 360.518 222.292 358.191 222.292C355.864 222.292 353.978 224.178 353.978 226.505V245.574C353.978 247.9 355.864 249.787 358.191 249.787Z" fill="#404756"/>
<path d="M358.191 199.145C360.518 199.145 362.403 197.258 362.403 194.932V175.863C362.403 173.536 360.518 171.65 358.191 171.65C355.864 171.65 353.978 173.536 353.978 175.863V194.932C353.978 197.259 355.864 199.145 358.191 199.145Z" fill="#404756"/>
<path d="M169.81 272.933C167.483 272.933 165.597 274.819 165.597 277.146V296.215C165.597 298.542 167.483 300.428 169.81 300.428C172.136 300.428 174.022 298.542 174.022 296.215V277.146C174.022 274.819 172.136 272.933 169.81 272.933Z" fill="#404756"/>
<path d="M169.81 222.291C167.483 222.291 165.597 224.177 165.597 226.504V245.573C165.597 247.9 167.483 249.786 169.81 249.786C172.136 249.786 174.022 247.9 174.022 245.573V226.504C174.022 224.177 172.136 222.291 169.81 222.291Z" fill="#404756"/>
<path d="M169.81 171.65C167.483 171.65 165.597 173.536 165.597 175.863V194.932C165.597 197.258 167.483 199.145 169.81 199.145C172.136 199.145 174.022 197.258 174.022 194.932V175.863C174.022 173.536 172.136 171.65 169.81 171.65Z" fill="#404756"/>
<path d="M391.787 140.078H328.806V76.4253H330.21C332.537 76.4253 334.423 74.5392 334.423 72.2127C334.423 69.8862 332.537 68 330.21 68H197.79C195.464 68 193.577 69.8862 193.577 72.2127C193.577 74.5392 195.464 76.4253 197.79 76.4253H199.194V140.077H136.213C133.886 140.077 132 141.963 132 144.29V327.787C132 330.114 133.886 332 136.213 332H391.787C394.114 332 396 330.114 396 327.787V144.29C396 141.964 394.114 140.078 391.787 140.078ZM140.425 148.503H199.194V323.575H140.425V148.503ZM295.736 243.715V323.575H268.213V243.715H295.736ZM259.787 323.575H232.264V243.715H259.787V323.575ZM387.575 323.575H328.806V177.993C328.806 175.666 326.92 173.78 324.593 173.78C322.266 173.78 320.38 175.666 320.38 177.993V323.575H304.162V239.502C304.162 237.176 302.276 235.289 299.949 235.289H228.051C225.725 235.289 223.838 237.176 223.838 239.502V323.575H207.62V76.4253H320.38V161.141C320.38 163.468 322.266 165.354 324.593 165.354C326.92 165.354 328.806 163.468 328.806 161.141V148.503H387.575V323.575Z" fill="#404756"/>
</g>
<rect x="266" y="202" width="217.13" height="72.65" rx="3.88" fill="white"/>
<rect x="266" y="202" width="217.13" height="72.65" rx="3.88" stroke="#0055C5" stroke-width="4"/>
<g clip-path="url(#clip1_143_1193)">
<path fill-rule="evenodd" clip-rule="evenodd" d="M284.575 238.325C284.575 233.647 286.434 229.16 289.742 225.852C293.05 222.544 297.537 220.685 302.215 220.685C306.894 220.685 311.38 222.544 314.689 225.852C317.997 229.16 319.855 233.647 319.855 238.325C319.855 243.003 317.997 247.49 314.689 250.798C311.38 254.107 306.894 255.965 302.215 255.965C297.537 255.965 293.05 254.107 289.742 250.798C286.434 247.49 284.575 243.003 284.575 238.325ZM301.209 245.875L311.364 233.179L309.53 231.711L300.87 242.533L294.736 237.422L293.231 239.228L301.209 245.875Z" fill="#0055C5"/>
</g>
<path d="M336.785 250.325V224.667H347.059C348.946 224.667 350.521 224.947 351.782 225.506C353.043 226.066 353.991 226.843 354.626 227.836C355.26 228.822 355.578 229.958 355.578 231.244C355.578 232.246 355.377 233.128 354.976 233.888C354.576 234.639 354.024 235.257 353.323 235.742C352.629 236.218 351.836 236.556 350.942 236.757V237.007C351.92 237.049 352.834 237.325 353.686 237.834C354.546 238.344 355.244 239.058 355.778 239.976C356.313 240.887 356.58 241.973 356.58 243.234C356.58 244.595 356.242 245.811 355.565 246.88C354.897 247.94 353.907 248.78 352.596 249.398C351.285 250.016 349.669 250.325 347.748 250.325H336.785ZM342.21 245.89H346.633C348.144 245.89 349.247 245.602 349.94 245.025C350.633 244.441 350.98 243.664 350.98 242.695C350.98 241.985 350.809 241.359 350.466 240.816C350.124 240.273 349.635 239.847 349 239.538C348.374 239.229 347.626 239.074 346.758 239.074H342.21V245.89ZM342.21 235.404H346.232C346.975 235.404 347.635 235.274 348.211 235.015C348.796 234.748 349.255 234.372 349.589 233.888C349.932 233.403 350.103 232.823 350.103 232.146C350.103 231.219 349.773 230.472 349.113 229.904C348.462 229.336 347.535 229.052 346.332 229.052H342.21V235.404ZM368.704 250.701C366.758 250.701 365.075 250.287 363.656 249.46C362.244 248.625 361.154 247.464 360.386 245.978C359.617 244.483 359.233 242.749 359.233 240.778C359.233 238.79 359.617 237.053 360.386 235.566C361.154 234.071 362.244 232.91 363.656 232.084C365.075 231.248 366.758 230.831 368.704 230.831C370.651 230.831 372.329 231.248 373.741 232.084C375.161 232.91 376.255 234.071 377.023 235.566C377.792 237.053 378.176 238.79 378.176 240.778C378.176 242.749 377.792 244.483 377.023 245.978C376.255 247.464 375.161 248.625 373.741 249.46C372.329 250.287 370.651 250.701 368.704 250.701ZM368.73 246.566C369.615 246.566 370.354 246.316 370.947 245.815C371.54 245.305 371.987 244.612 372.288 243.735C372.597 242.858 372.751 241.86 372.751 240.741C372.751 239.622 372.597 238.623 372.288 237.746C371.987 236.869 371.54 236.176 370.947 235.667C370.354 235.157 369.615 234.902 368.73 234.902C367.836 234.902 367.084 235.157 366.474 235.667C365.873 236.176 365.418 236.869 365.109 237.746C364.808 238.623 364.658 239.622 364.658 240.741C364.658 241.86 364.808 242.858 365.109 243.735C365.418 244.612 365.873 245.305 366.474 245.815C367.084 246.316 367.836 246.566 368.73 246.566ZM390.341 250.701C388.395 250.701 386.712 250.287 385.292 249.46C383.881 248.625 382.791 247.464 382.022 245.978C381.254 244.483 380.87 242.749 380.87 240.778C380.87 238.79 381.254 237.053 382.022 235.566C382.791 234.071 383.881 232.91 385.292 232.084C386.712 231.248 388.395 230.831 390.341 230.831C392.287 230.831 393.966 231.248 395.377 232.084C396.797 232.91 397.892 234.071 398.66 235.566C399.428 237.053 399.813 238.79 399.813 240.778C399.813 242.749 399.428 244.483 398.66 245.978C397.892 247.464 396.797 248.625 395.377 249.46C393.966 250.287 392.287 250.701 390.341 250.701ZM390.366 246.566C391.251 246.566 391.991 246.316 392.584 245.815C393.177 245.305 393.623 244.612 393.924 243.735C394.233 242.858 394.388 241.86 394.388 240.741C394.388 239.622 394.233 238.623 393.924 237.746C393.623 236.869 393.177 236.176 392.584 235.667C391.991 235.157 391.251 234.902 390.366 234.902C389.472 234.902 388.721 235.157 388.111 235.667C387.51 236.176 387.054 236.869 386.745 237.746C386.445 238.623 386.294 239.622 386.294 240.741C386.294 241.86 386.445 242.858 386.745 243.735C387.054 244.612 387.51 245.305 388.111 245.815C388.721 246.316 389.472 246.566 390.366 246.566ZM408.119 244.787L408.131 238.385H408.908L415.072 231.081H421.199L412.917 240.753H411.652L408.119 244.787ZM403.283 250.325V224.667H408.62V250.325H403.283ZM415.31 250.325L409.647 241.943L413.205 238.172L421.562 250.325H415.31ZM431.794 250.701C429.815 250.701 428.111 250.3 426.683 249.498C425.263 248.688 424.169 247.544 423.4 246.065C422.632 244.579 422.248 242.82 422.248 240.791C422.248 238.811 422.632 237.074 423.4 235.579C424.169 234.084 425.25 232.919 426.645 232.084C428.048 231.248 429.694 230.831 431.581 230.831C432.851 230.831 434.033 231.035 435.127 231.445C436.229 231.846 437.19 232.451 438.009 233.261C438.835 234.071 439.479 235.09 439.938 236.318C440.397 237.538 440.627 238.966 440.627 240.603V242.069H424.378V238.761H435.603C435.603 237.993 435.436 237.312 435.102 236.719C434.768 236.126 434.304 235.663 433.711 235.328C433.127 234.986 432.446 234.815 431.669 234.815C430.859 234.815 430.141 235.003 429.514 235.379C428.896 235.746 428.412 236.243 428.061 236.869C427.71 237.488 427.531 238.177 427.522 238.937V242.081C427.522 243.033 427.698 243.856 428.048 244.549C428.408 245.243 428.913 245.777 429.564 246.153C430.216 246.529 430.988 246.717 431.882 246.717C432.475 246.717 433.018 246.633 433.511 246.466C434.004 246.299 434.425 246.049 434.776 245.714C435.127 245.38 435.394 244.971 435.578 244.487L440.514 244.812C440.264 245.998 439.75 247.034 438.973 247.919C438.205 248.796 437.211 249.481 435.991 249.974C434.78 250.459 433.381 250.701 431.794 250.701ZM451.201 250.638C449.739 250.638 448.415 250.262 447.229 249.511C446.052 248.751 445.116 247.636 444.423 246.166C443.738 244.687 443.396 242.875 443.396 240.728C443.396 238.523 443.751 236.69 444.461 235.228C445.171 233.758 446.114 232.66 447.292 231.933C448.478 231.198 449.777 230.831 451.188 230.831C452.266 230.831 453.164 231.014 453.882 231.382C454.609 231.741 455.193 232.192 455.636 232.735C456.087 233.27 456.429 233.796 456.663 234.314H456.826V224.667H462.151V250.325H456.889V247.243H456.663C456.413 247.778 456.058 248.308 455.598 248.834C455.147 249.352 454.559 249.782 453.832 250.124C453.114 250.467 452.237 250.638 451.201 250.638ZM452.892 246.391C453.753 246.391 454.479 246.157 455.072 245.689C455.674 245.213 456.133 244.549 456.45 243.697C456.776 242.845 456.939 241.847 456.939 240.703C456.939 239.559 456.78 238.565 456.463 237.721C456.145 236.878 455.686 236.226 455.085 235.767C454.483 235.308 453.753 235.078 452.892 235.078C452.015 235.078 451.276 235.316 450.675 235.792C450.073 236.268 449.618 236.928 449.309 237.771C449 238.615 448.846 239.592 448.846 240.703C448.846 241.822 449 242.812 449.309 243.672C449.627 244.524 450.082 245.192 450.675 245.677C451.276 246.153 452.015 246.391 452.892 246.391Z" fill="#0055C5"/>
<defs>
<clipPath id="clip0_143_1193">
<rect width="264" height="264" fill="white" transform="translate(132 68)"/>
</clipPath>
<clipPath id="clip1_143_1193">
<rect width="35.28" height="35.28" fill="white" transform="translate(284.575 220.685)"/>
</clipPath>
</defs>
</svg>
