<svg width="528" height="401" viewBox="0 0 528 401" fill="none" xmlns="http://www.w3.org/2000/svg">
<rect width="528" height="401" rx="8" fill="#EAECF0"/>
<rect x="77.125" y="195.875" width="183.75" height="57.75" rx="7.875" fill="white"/>
<rect x="77.125" y="195.875" width="183.75" height="57.75" rx="7.875" stroke="#0055C5" stroke-width="1.75"/>
<path d="M141 229.889C140.251 229.889 139.613 229.685 139.086 229.278C138.559 228.867 138.156 228.272 137.878 227.493C137.599 226.711 137.46 225.766 137.46 224.659C137.46 223.559 137.599 222.619 137.878 221.84C138.16 221.058 138.564 220.461 139.091 220.05C139.621 219.636 140.258 219.429 141 219.429C141.742 219.429 142.377 219.636 142.904 220.05C143.434 220.461 143.839 221.058 144.117 221.84C144.399 222.619 144.54 223.559 144.54 224.659C144.54 225.766 144.401 226.711 144.122 227.493C143.844 228.272 143.441 228.867 142.914 229.278C142.387 229.685 141.749 229.889 141 229.889ZM141 228.795C141.742 228.795 142.319 228.437 142.73 227.722C143.141 227.006 143.347 225.985 143.347 224.659C143.347 223.777 143.252 223.027 143.063 222.407C142.878 221.787 142.609 221.315 142.258 220.99C141.91 220.665 141.491 220.503 141 220.503C140.264 220.503 139.689 220.866 139.275 221.592C138.861 222.314 138.653 223.337 138.653 224.659C138.653 225.541 138.746 226.29 138.932 226.906C139.117 227.523 139.384 227.992 139.732 228.313C140.084 228.635 140.506 228.795 141 228.795ZM149.69 229.889C149.008 229.889 148.404 229.768 147.881 229.526C147.36 229.281 146.954 228.945 146.663 228.517C146.371 228.086 146.227 227.596 146.23 227.045C146.227 226.615 146.311 226.217 146.484 225.852C146.656 225.484 146.891 225.178 147.19 224.933C147.491 224.684 147.828 224.527 148.199 224.46V224.401C147.712 224.275 147.324 224.001 147.036 223.58C146.747 223.156 146.605 222.674 146.608 222.134C146.605 221.616 146.736 221.154 147.001 220.746C147.266 220.339 147.63 220.017 148.094 219.782C148.562 219.547 149.094 219.429 149.69 219.429C150.28 219.429 150.807 219.547 151.271 219.782C151.735 220.017 152.1 220.339 152.365 220.746C152.634 221.154 152.769 221.616 152.773 222.134C152.769 222.674 152.622 223.156 152.33 223.58C152.042 224.001 151.659 224.275 151.182 224.401V224.46C151.55 224.527 151.881 224.684 152.176 224.933C152.471 225.178 152.706 225.484 152.882 225.852C153.058 226.217 153.147 226.615 153.151 227.045C153.147 227.596 152.998 228.086 152.703 228.517C152.411 228.945 152.005 229.281 151.485 229.526C150.968 229.768 150.37 229.889 149.69 229.889ZM149.69 228.795C150.151 228.795 150.549 228.721 150.884 228.572C151.218 228.423 151.477 228.212 151.659 227.94C151.841 227.669 151.934 227.35 151.938 226.986C151.934 226.601 151.835 226.262 151.639 225.967C151.444 225.672 151.177 225.44 150.839 225.271C150.504 225.102 150.121 225.017 149.69 225.017C149.256 225.017 148.868 225.102 148.527 225.271C148.189 225.44 147.922 225.672 147.727 225.967C147.534 226.262 147.44 226.601 147.443 226.986C147.44 227.35 147.528 227.669 147.707 227.94C147.889 228.212 148.149 228.423 148.487 228.572C148.825 228.721 149.226 228.795 149.69 228.795ZM149.69 223.963C150.055 223.963 150.378 223.89 150.66 223.744C150.945 223.598 151.169 223.395 151.331 223.133C151.493 222.871 151.576 222.564 151.58 222.213C151.576 221.868 151.495 221.568 151.336 221.313C151.177 221.055 150.956 220.856 150.675 220.717C150.393 220.574 150.065 220.503 149.69 220.503C149.309 220.503 148.976 220.574 148.691 220.717C148.406 220.856 148.186 221.055 148.03 221.313C147.874 221.568 147.798 221.868 147.801 222.213C147.798 222.564 147.876 222.871 148.035 223.133C148.197 223.395 148.421 223.598 148.706 223.744C148.991 223.89 149.319 223.963 149.69 223.963ZM155.931 228.447C155.686 228.447 155.475 228.36 155.3 228.184C155.124 228.008 155.036 227.798 155.036 227.553C155.036 227.307 155.124 227.097 155.3 226.921C155.475 226.746 155.686 226.658 155.931 226.658C156.176 226.658 156.387 226.746 156.562 226.921C156.738 227.097 156.826 227.307 156.826 227.553C156.826 227.715 156.784 227.864 156.702 228C156.622 228.136 156.514 228.245 156.378 228.328C156.246 228.408 156.097 228.447 155.931 228.447ZM155.931 223.297C155.686 223.297 155.475 223.209 155.3 223.033C155.124 222.858 155.036 222.647 155.036 222.402C155.036 222.157 155.124 221.946 155.3 221.771C155.475 221.595 155.686 221.507 155.931 221.507C156.176 221.507 156.387 221.595 156.562 221.771C156.738 221.946 156.826 222.157 156.826 222.402C156.826 222.564 156.784 222.714 156.702 222.849C156.622 222.985 156.514 223.095 156.378 223.178C156.246 223.257 156.097 223.297 155.931 223.297ZM162.352 229.889C161.695 229.889 161.11 229.777 160.597 229.551C160.086 229.326 159.68 229.013 159.379 228.612C159.08 228.207 158.918 227.738 158.892 227.205H160.144C160.171 227.533 160.284 227.816 160.482 228.055C160.681 228.29 160.941 228.472 161.263 228.602C161.584 228.731 161.941 228.795 162.332 228.795C162.769 228.795 163.157 228.719 163.495 228.567C163.833 228.414 164.098 228.202 164.291 227.93C164.483 227.659 164.579 227.344 164.579 226.986C164.579 226.611 164.486 226.281 164.301 225.996C164.115 225.708 163.843 225.483 163.485 225.32C163.127 225.158 162.69 225.077 162.173 225.077H161.357V223.983H162.173C162.577 223.983 162.932 223.91 163.237 223.764C163.545 223.618 163.785 223.413 163.958 223.148C164.133 222.883 164.221 222.571 164.221 222.213C164.221 221.868 164.145 221.568 163.992 221.313C163.84 221.058 163.624 220.859 163.346 220.717C163.071 220.574 162.746 220.503 162.372 220.503C162.02 220.503 161.689 220.567 161.377 220.697C161.069 220.823 160.817 221.007 160.622 221.249C160.426 221.487 160.32 221.776 160.303 222.114H159.11C159.13 221.58 159.291 221.113 159.593 220.712C159.894 220.307 160.289 219.992 160.776 219.767C161.266 219.542 161.805 219.429 162.392 219.429C163.021 219.429 163.561 219.557 164.012 219.812C164.463 220.064 164.809 220.397 165.051 220.811C165.293 221.225 165.414 221.673 165.414 222.153C165.414 222.727 165.263 223.216 164.962 223.62C164.664 224.024 164.258 224.304 163.744 224.46V224.54C164.387 224.646 164.889 224.919 165.25 225.36C165.611 225.798 165.792 226.339 165.792 226.986C165.792 227.539 165.641 228.036 165.34 228.477C165.041 228.915 164.634 229.259 164.117 229.511C163.6 229.763 163.011 229.889 162.352 229.889ZM171.146 229.889C170.397 229.889 169.759 229.685 169.232 229.278C168.705 228.867 168.303 228.272 168.024 227.493C167.746 226.711 167.607 225.766 167.607 224.659C167.607 223.559 167.746 222.619 168.024 221.84C168.306 221.058 168.71 220.461 169.237 220.05C169.768 219.636 170.404 219.429 171.146 219.429C171.889 219.429 172.524 219.636 173.051 220.05C173.581 220.461 173.985 221.058 174.264 221.84C174.545 222.619 174.686 223.559 174.686 224.659C174.686 225.766 174.547 226.711 174.269 227.493C173.99 228.272 173.588 228.867 173.061 229.278C172.534 229.685 171.896 229.889 171.146 229.889ZM171.146 228.795C171.889 228.795 172.466 228.437 172.877 227.722C173.288 227.006 173.493 225.985 173.493 224.659C173.493 223.777 173.399 223.027 173.21 222.407C173.024 221.787 172.756 221.315 172.404 220.99C172.056 220.665 171.637 220.503 171.146 220.503C170.411 220.503 169.836 220.866 169.421 221.592C169.007 222.314 168.8 223.337 168.8 224.659C168.8 225.541 168.893 226.29 169.078 226.906C169.264 227.523 169.531 227.992 169.879 228.313C170.23 228.635 170.653 228.795 171.146 228.795ZM181.11 229.75H179.817L183.556 219.568H184.828L188.567 229.75H187.274L184.232 221.179H184.152L181.11 229.75ZM181.587 225.773H186.797V226.866H181.587V225.773ZM190.153 219.568H191.624L195.085 228.02H195.204L198.664 219.568H200.136V229.75H198.982V222.014H198.883L195.701 229.75H194.588L191.406 222.014H191.306V229.75H190.153V219.568Z" fill="#404756"/>
<rect x="266.562" y="196.312" width="182.875" height="56.875" rx="7.4375" fill="white"/>
<rect x="266.562" y="196.312" width="182.875" height="56.875" rx="7.4375" stroke="#D5DAE3" stroke-width="0.875"/>
<path d="M330.027 229.889C329.278 229.889 328.64 229.685 328.113 229.278C327.586 228.867 327.184 228.272 326.905 227.493C326.627 226.711 326.488 225.766 326.488 224.659C326.488 223.559 326.627 222.619 326.905 221.84C327.187 221.058 327.591 220.461 328.118 220.05C328.649 219.636 329.285 219.429 330.027 219.429C330.77 219.429 331.404 219.636 331.931 220.05C332.462 220.461 332.866 221.058 333.145 221.84C333.426 222.619 333.567 223.559 333.567 224.659C333.567 225.766 333.428 226.711 333.15 227.493C332.871 228.272 332.468 228.867 331.941 229.278C331.414 229.685 330.776 229.889 330.027 229.889ZM330.027 228.795C330.77 228.795 331.346 228.437 331.757 227.722C332.168 227.006 332.374 225.985 332.374 224.659C332.374 223.777 332.279 223.027 332.091 222.407C331.905 221.787 331.636 221.315 331.285 220.99C330.937 220.665 330.518 220.503 330.027 220.503C329.292 220.503 328.717 220.866 328.302 221.592C327.888 222.314 327.681 223.337 327.681 224.659C327.681 225.541 327.774 226.29 327.959 226.906C328.145 227.523 328.412 227.992 328.76 228.313C329.111 228.635 329.533 228.795 330.027 228.795ZM338.698 219.429C339.115 219.432 339.533 219.512 339.951 219.668C340.368 219.823 340.749 220.082 341.094 220.443C341.439 220.801 341.716 221.29 341.924 221.91C342.133 222.53 342.238 223.307 342.238 224.241C342.238 225.146 342.151 225.95 341.979 226.653C341.81 227.352 341.565 227.942 341.243 228.423C340.925 228.903 340.537 229.268 340.08 229.516C339.626 229.765 339.112 229.889 338.539 229.889C337.969 229.889 337.46 229.777 337.012 229.551C336.568 229.322 336.204 229.006 335.919 228.602C335.637 228.194 335.456 227.722 335.377 227.185H336.59C336.699 227.652 336.916 228.038 337.241 228.343C337.569 228.645 338.002 228.795 338.539 228.795C339.324 228.795 339.944 228.452 340.398 227.766C340.855 227.08 341.084 226.111 341.084 224.858H341.005C340.819 225.136 340.599 225.377 340.343 225.579C340.088 225.781 339.805 225.937 339.493 226.046C339.182 226.156 338.85 226.21 338.499 226.21C337.916 226.21 337.38 226.066 336.893 225.778C336.409 225.486 336.021 225.087 335.73 224.58C335.441 224.069 335.297 223.486 335.297 222.83C335.297 222.206 335.436 221.636 335.715 221.119C335.997 220.599 336.391 220.185 336.898 219.876C337.408 219.568 338.008 219.419 338.698 219.429ZM338.698 220.523C338.28 220.523 337.904 220.627 337.569 220.836C337.238 221.041 336.974 221.32 336.779 221.671C336.587 222.019 336.49 222.405 336.49 222.83C336.49 223.254 336.583 223.64 336.769 223.988C336.958 224.333 337.215 224.608 337.539 224.813C337.868 225.015 338.24 225.116 338.658 225.116C338.973 225.116 339.266 225.055 339.538 224.933C339.81 224.807 340.047 224.636 340.249 224.42C340.454 224.202 340.615 223.955 340.731 223.68C340.847 223.401 340.905 223.111 340.905 222.81C340.905 222.412 340.809 222.039 340.617 221.691C340.428 221.343 340.166 221.061 339.831 220.846C339.5 220.63 339.122 220.523 338.698 220.523ZM345.068 228.447C344.822 228.447 344.612 228.36 344.436 228.184C344.261 228.008 344.173 227.798 344.173 227.553C344.173 227.307 344.261 227.097 344.436 226.921C344.612 226.746 344.822 226.658 345.068 226.658C345.313 226.658 345.523 226.746 345.699 226.921C345.875 227.097 345.963 227.307 345.963 227.553C345.963 227.715 345.921 227.864 345.838 228C345.759 228.136 345.651 228.245 345.515 228.328C345.383 228.408 345.233 228.447 345.068 228.447ZM345.068 223.297C344.822 223.297 344.612 223.209 344.436 223.033C344.261 222.858 344.173 222.647 344.173 222.402C344.173 222.157 344.261 221.946 344.436 221.771C344.612 221.595 344.822 221.507 345.068 221.507C345.313 221.507 345.523 221.595 345.699 221.771C345.875 221.946 345.963 222.157 345.963 222.402C345.963 222.564 345.921 222.714 345.838 222.849C345.759 222.985 345.651 223.095 345.515 223.178C345.383 223.257 345.233 223.297 345.068 223.297ZM351.369 229.889C350.62 229.889 349.982 229.685 349.455 229.278C348.928 228.867 348.525 228.272 348.247 227.493C347.969 226.711 347.829 225.766 347.829 224.659C347.829 223.559 347.969 222.619 348.247 221.84C348.529 221.058 348.933 220.461 349.46 220.05C349.99 219.636 350.627 219.429 351.369 219.429C352.112 219.429 352.746 219.636 353.273 220.05C353.804 220.461 354.208 221.058 354.486 221.84C354.768 222.619 354.909 223.559 354.909 224.659C354.909 225.766 354.77 226.711 354.491 227.493C354.213 228.272 353.81 228.867 353.283 229.278C352.756 229.685 352.118 229.889 351.369 229.889ZM351.369 228.795C352.112 228.795 352.688 228.437 353.099 227.722C353.51 227.006 353.716 225.985 353.716 224.659C353.716 223.777 353.621 223.027 353.432 222.407C353.247 221.787 352.978 221.315 352.627 220.99C352.279 220.665 351.86 220.503 351.369 220.503C350.633 220.503 350.058 220.866 349.644 221.592C349.23 222.314 349.023 223.337 349.023 224.659C349.023 225.541 349.115 226.29 349.301 226.906C349.487 227.523 349.753 227.992 350.101 228.313C350.453 228.635 350.875 228.795 351.369 228.795ZM360.119 229.889C359.37 229.889 358.732 229.685 358.205 229.278C357.678 228.867 357.275 228.272 356.997 227.493C356.719 226.711 356.579 225.766 356.579 224.659C356.579 223.559 356.719 222.619 356.997 221.84C357.279 221.058 357.683 220.461 358.21 220.05C358.74 219.636 359.377 219.429 360.119 219.429C360.862 219.429 361.496 219.636 362.023 220.05C362.554 220.461 362.958 221.058 363.236 221.84C363.518 222.619 363.659 223.559 363.659 224.659C363.659 225.766 363.52 226.711 363.241 227.493C362.963 228.272 362.56 228.867 362.033 229.278C361.506 229.685 360.868 229.889 360.119 229.889ZM360.119 228.795C360.862 228.795 361.438 228.437 361.849 227.722C362.26 227.006 362.466 225.985 362.466 224.659C362.466 223.777 362.371 223.027 362.182 222.407C361.997 221.787 361.728 221.315 361.377 220.99C361.029 220.665 360.61 220.503 360.119 220.503C359.383 220.503 358.808 220.866 358.394 221.592C357.98 222.314 357.773 223.337 357.773 224.659C357.773 225.541 357.865 226.29 358.051 226.906C358.237 227.523 358.503 227.992 358.851 228.313C359.203 228.635 359.625 228.795 360.119 228.795ZM370.082 229.75H368.79L372.528 219.568H373.801L377.54 229.75H376.247L373.204 221.179H373.125L370.082 229.75ZM370.559 225.773H375.77V226.866H370.559V225.773ZM379.126 219.568H380.597L384.057 228.02H384.177L387.637 219.568H389.108V229.75H387.955V222.014H387.856L384.674 229.75H383.56L380.378 222.014H380.279V229.75H379.126V219.568Z" fill="#404756"/>
<rect x="77.5625" y="259.312" width="182.875" height="56.875" rx="7.4375" fill="white"/>
<rect x="77.5625" y="259.312" width="182.875" height="56.875" rx="7.4375" stroke="#D5DAE3" stroke-width="0.875"/>
<path d="M142.4 282.568V292.75H141.167V283.861H141.108L138.622 285.511V284.259L141.167 282.568H142.4ZM148.649 292.889C147.9 292.889 147.262 292.685 146.735 292.278C146.208 291.867 145.806 291.272 145.527 290.493C145.249 289.711 145.11 288.766 145.11 287.659C145.11 286.559 145.249 285.619 145.527 284.84C145.809 284.058 146.213 283.461 146.74 283.05C147.271 282.636 147.907 282.429 148.649 282.429C149.392 282.429 150.027 282.636 150.554 283.05C151.084 283.461 151.488 284.058 151.767 284.84C152.048 285.619 152.189 286.559 152.189 287.659C152.189 288.766 152.05 289.711 151.772 290.493C151.493 291.272 151.09 291.867 150.563 292.278C150.036 292.685 149.398 292.889 148.649 292.889ZM148.649 291.795C149.392 291.795 149.969 291.437 150.38 290.722C150.791 290.006 150.996 288.985 150.996 287.659C150.996 286.777 150.902 286.027 150.713 285.407C150.527 284.787 150.259 284.315 149.907 283.99C149.559 283.665 149.14 283.503 148.649 283.503C147.914 283.503 147.339 283.866 146.924 284.592C146.51 285.314 146.303 286.337 146.303 287.659C146.303 288.541 146.396 289.29 146.581 289.906C146.767 290.523 147.034 290.992 147.382 291.313C147.733 291.635 148.156 291.795 148.649 291.795ZM154.953 291.447C154.708 291.447 154.498 291.36 154.322 291.184C154.146 291.008 154.059 290.798 154.059 290.553C154.059 290.307 154.146 290.097 154.322 289.921C154.498 289.746 154.708 289.658 154.953 289.658C155.199 289.658 155.409 289.746 155.585 289.921C155.76 290.097 155.848 290.307 155.848 290.553C155.848 290.715 155.807 290.864 155.724 291C155.644 291.136 155.537 291.245 155.401 291.328C155.268 291.408 155.119 291.447 154.953 291.447ZM154.953 286.297C154.708 286.297 154.498 286.209 154.322 286.033C154.146 285.858 154.059 285.647 154.059 285.402C154.059 285.157 154.146 284.946 154.322 284.771C154.498 284.595 154.708 284.507 154.953 284.507C155.199 284.507 155.409 284.595 155.585 284.771C155.76 284.946 155.848 285.157 155.848 285.402C155.848 285.564 155.807 285.714 155.724 285.849C155.644 285.985 155.537 286.095 155.401 286.178C155.268 286.257 155.119 286.297 154.953 286.297ZM161.255 292.889C160.506 292.889 159.868 292.685 159.341 292.278C158.814 291.867 158.411 291.272 158.133 290.493C157.854 289.711 157.715 288.766 157.715 287.659C157.715 286.559 157.854 285.619 158.133 284.84C158.414 284.058 158.819 283.461 159.346 283.05C159.876 282.636 160.512 282.429 161.255 282.429C161.997 282.429 162.632 282.636 163.159 283.05C163.689 283.461 164.094 284.058 164.372 284.84C164.654 285.619 164.795 286.559 164.795 287.659C164.795 288.766 164.655 289.711 164.377 290.493C164.099 291.272 163.696 291.867 163.169 292.278C162.642 292.685 162.004 292.889 161.255 292.889ZM161.255 291.795C161.997 291.795 162.574 291.437 162.985 290.722C163.396 290.006 163.601 288.985 163.601 287.659C163.601 286.777 163.507 286.027 163.318 285.407C163.132 284.787 162.864 284.315 162.513 283.99C162.165 283.665 161.745 283.503 161.255 283.503C160.519 283.503 159.944 283.866 159.53 284.592C159.115 285.314 158.908 286.337 158.908 287.659C158.908 288.541 159.001 289.29 159.187 289.906C159.372 290.523 159.639 290.992 159.987 291.313C160.338 291.635 160.761 291.795 161.255 291.795ZM170.005 292.889C169.256 292.889 168.618 292.685 168.091 292.278C167.564 291.867 167.161 291.272 166.883 290.493C166.604 289.711 166.465 288.766 166.465 287.659C166.465 286.559 166.604 285.619 166.883 284.84C167.164 284.058 167.569 283.461 168.096 283.05C168.626 282.636 169.262 282.429 170.005 282.429C170.747 282.429 171.382 282.636 171.909 283.05C172.439 283.461 172.844 284.058 173.122 284.84C173.404 285.619 173.545 286.559 173.545 287.659C173.545 288.766 173.405 289.711 173.127 290.493C172.849 291.272 172.446 291.867 171.919 292.278C171.392 292.685 170.754 292.889 170.005 292.889ZM170.005 291.795C170.747 291.795 171.324 291.437 171.735 290.722C172.146 290.006 172.351 288.985 172.351 287.659C172.351 286.777 172.257 286.027 172.068 285.407C171.882 284.787 171.614 284.315 171.263 283.99C170.915 283.665 170.495 283.503 170.005 283.503C169.269 283.503 168.694 283.866 168.28 284.592C167.865 285.314 167.658 286.337 167.658 287.659C167.658 288.541 167.751 289.29 167.937 289.906C168.122 290.523 168.389 290.992 168.737 291.313C169.088 291.635 169.511 291.795 170.005 291.795ZM179.968 292.75H178.675L182.414 282.568H183.687L187.425 292.75H186.133L183.09 284.179H183.011L179.968 292.75ZM180.445 288.773H185.655V289.866H180.445V288.773ZM189.011 282.568H190.483L193.943 291.02H194.062L197.523 282.568H198.994V292.75H197.841V285.014H197.741L194.56 292.75H193.446L190.264 285.014H190.165V292.75H189.011V282.568Z" fill="#404756"/>
<rect x="266.562" y="259.312" width="182.875" height="56.875" rx="7.4375" fill="white"/>
<rect x="266.562" y="259.312" width="182.875" height="56.875" rx="7.4375" stroke="#D5DAE3" stroke-width="0.875"/>
<path d="M331.318 282.568V292.75H330.085V283.861H330.025L327.54 285.511V284.259L330.085 282.568H331.318ZM337.567 292.889C336.818 292.889 336.18 292.685 335.653 292.278C335.126 291.867 334.724 291.272 334.445 290.493C334.167 289.711 334.028 288.766 334.028 287.659C334.028 286.559 334.167 285.619 334.445 284.84C334.727 284.058 335.131 283.461 335.658 283.05C336.189 282.636 336.825 282.429 337.567 282.429C338.31 282.429 338.945 282.636 339.472 283.05C340.002 283.461 340.406 284.058 340.685 284.84C340.966 285.619 341.107 286.559 341.107 287.659C341.107 288.766 340.968 289.711 340.69 290.493C340.411 291.272 340.008 291.867 339.481 292.278C338.954 292.685 338.316 292.889 337.567 292.889ZM337.567 291.795C338.31 291.795 338.887 291.437 339.297 290.722C339.708 290.006 339.914 288.985 339.914 287.659C339.914 286.777 339.82 286.027 339.631 285.407C339.445 284.787 339.177 284.315 338.825 283.99C338.477 283.665 338.058 283.503 337.567 283.503C336.832 283.503 336.257 283.866 335.842 284.592C335.428 285.314 335.221 286.337 335.221 287.659C335.221 288.541 335.314 289.29 335.499 289.906C335.685 290.523 335.952 290.992 336.3 291.313C336.651 291.635 337.074 291.795 337.567 291.795ZM343.871 291.447C343.626 291.447 343.416 291.36 343.24 291.184C343.064 291.008 342.976 290.798 342.976 290.553C342.976 290.307 343.064 290.097 343.24 289.921C343.416 289.746 343.626 289.658 343.871 289.658C344.117 289.658 344.327 289.746 344.503 289.921C344.678 290.097 344.766 290.307 344.766 290.553C344.766 290.715 344.725 290.864 344.642 291C344.562 291.136 344.455 291.245 344.319 291.328C344.186 291.408 344.037 291.447 343.871 291.447ZM343.871 286.297C343.626 286.297 343.416 286.209 343.24 286.033C343.064 285.858 342.976 285.647 342.976 285.402C342.976 285.157 343.064 284.946 343.24 284.771C343.416 284.595 343.626 284.507 343.871 284.507C344.117 284.507 344.327 284.595 344.503 284.771C344.678 284.946 344.766 285.157 344.766 285.402C344.766 285.564 344.725 285.714 344.642 285.849C344.562 285.985 344.455 286.095 344.319 286.178C344.186 286.257 344.037 286.297 343.871 286.297ZM350.292 292.889C349.636 292.889 349.051 292.777 348.537 292.551C348.027 292.326 347.621 292.013 347.319 291.612C347.021 291.207 346.858 290.738 346.832 290.205H348.085C348.111 290.533 348.224 290.816 348.423 291.055C348.622 291.29 348.882 291.472 349.203 291.602C349.525 291.731 349.881 291.795 350.272 291.795C350.71 291.795 351.098 291.719 351.436 291.567C351.774 291.414 352.039 291.202 352.231 290.93C352.423 290.659 352.519 290.344 352.519 289.986C352.519 289.611 352.427 289.281 352.241 288.996C352.055 288.708 351.784 288.483 351.426 288.32C351.068 288.158 350.63 288.077 350.113 288.077H349.298V286.983H350.113C350.518 286.983 350.872 286.91 351.177 286.764C351.485 286.618 351.726 286.413 351.898 286.148C352.074 285.883 352.161 285.571 352.161 285.213C352.161 284.868 352.085 284.568 351.933 284.313C351.78 284.058 351.565 283.859 351.286 283.717C351.011 283.574 350.687 283.503 350.312 283.503C349.961 283.503 349.629 283.567 349.318 283.697C349.009 283.823 348.758 284.007 348.562 284.249C348.367 284.487 348.26 284.776 348.244 285.114H347.051C347.071 284.58 347.231 284.113 347.533 283.712C347.835 283.307 348.229 282.992 348.716 282.767C349.207 282.542 349.745 282.429 350.332 282.429C350.962 282.429 351.502 282.557 351.953 282.812C352.403 283.064 352.75 283.397 352.992 283.811C353.234 284.225 353.355 284.673 353.355 285.153C353.355 285.727 353.204 286.216 352.902 286.62C352.604 287.024 352.198 287.304 351.684 287.46V287.54C352.327 287.646 352.829 287.919 353.191 288.36C353.552 288.798 353.733 289.339 353.733 289.986C353.733 290.539 353.582 291.036 353.28 291.477C352.982 291.915 352.574 292.259 352.057 292.511C351.54 292.763 350.952 292.889 350.292 292.889ZM359.087 292.889C358.338 292.889 357.7 292.685 357.173 292.278C356.646 291.867 356.243 291.272 355.965 290.493C355.686 289.711 355.547 288.766 355.547 287.659C355.547 286.559 355.686 285.619 355.965 284.84C356.246 284.058 356.651 283.461 357.178 283.05C357.708 282.636 358.344 282.429 359.087 282.429C359.829 282.429 360.464 282.636 360.991 283.05C361.521 283.461 361.926 284.058 362.204 284.84C362.486 285.619 362.627 286.559 362.627 287.659C362.627 288.766 362.487 289.711 362.209 290.493C361.931 291.272 361.528 291.867 361.001 292.278C360.474 292.685 359.836 292.889 359.087 292.889ZM359.087 291.795C359.829 291.795 360.406 291.437 360.817 290.722C361.228 290.006 361.434 288.985 361.434 287.659C361.434 286.777 361.339 286.027 361.15 285.407C360.965 284.787 360.696 284.315 360.345 283.99C359.997 283.665 359.577 283.503 359.087 283.503C358.351 283.503 357.776 283.866 357.362 284.592C356.947 285.314 356.74 286.337 356.74 287.659C356.74 288.541 356.833 289.29 357.019 289.906C357.204 290.523 357.471 290.992 357.819 291.313C358.17 291.635 358.593 291.795 359.087 291.795ZM369.05 292.75H367.757L371.496 282.568H372.769L376.507 292.75H375.215L372.172 284.179H372.093L369.05 292.75ZM369.527 288.773H374.737V289.866H369.527V288.773ZM378.093 282.568H379.565L383.025 291.02H383.144L386.605 282.568H388.076V292.75H386.923V285.014H386.823L383.642 292.75H382.528L379.346 285.014H379.247V292.75H378.093V282.568Z" fill="#404756"/>
<g clip-path="url(#clip0_143_1185)">
<rect x="78.875" y="83.875" width="73.75" height="85.75" rx="7.875" fill="white"/>
<rect x="78.875" y="83.875" width="73.75" height="85.75" rx="7.875" stroke="#0055C5" stroke-width="1.75"/>
<path d="M107.551 110.114C107.491 109.61 107.25 109.219 106.825 108.94C106.401 108.662 105.881 108.523 105.264 108.523C104.813 108.523 104.419 108.596 104.081 108.741C103.746 108.887 103.484 109.088 103.295 109.343C103.11 109.598 103.017 109.888 103.017 110.213C103.017 110.485 103.082 110.719 103.211 110.914C103.344 111.106 103.513 111.267 103.718 111.396C103.924 111.522 104.139 111.627 104.364 111.71C104.59 111.789 104.797 111.854 104.986 111.903L106.02 112.182C106.285 112.251 106.58 112.348 106.905 112.47C107.233 112.593 107.546 112.76 107.844 112.972C108.146 113.181 108.395 113.45 108.59 113.778C108.786 114.106 108.884 114.509 108.884 114.986C108.884 115.536 108.739 116.033 108.451 116.477C108.166 116.921 107.748 117.274 107.198 117.536C106.651 117.798 105.987 117.929 105.205 117.929C104.475 117.929 103.844 117.811 103.31 117.576C102.78 117.341 102.362 117.013 102.058 116.592C101.756 116.171 101.585 115.682 101.545 115.125H102.818C102.851 115.509 102.981 115.828 103.206 116.08C103.435 116.328 103.723 116.514 104.071 116.636C104.422 116.756 104.8 116.815 105.205 116.815C105.675 116.815 106.098 116.739 106.472 116.587C106.847 116.431 107.143 116.215 107.362 115.94C107.581 115.662 107.69 115.337 107.69 114.966C107.69 114.628 107.596 114.353 107.407 114.141C107.218 113.929 106.969 113.756 106.661 113.624C106.353 113.491 106.02 113.375 105.662 113.276L104.409 112.918C103.614 112.689 102.984 112.362 102.52 111.938C102.056 111.514 101.824 110.959 101.824 110.273C101.824 109.703 101.978 109.205 102.286 108.781C102.598 108.354 103.015 108.022 103.539 107.787C104.066 107.548 104.654 107.429 105.304 107.429C105.96 107.429 106.544 107.547 107.054 107.782C107.564 108.014 107.969 108.332 108.267 108.737C108.569 109.141 108.728 109.6 108.744 110.114H107.551ZM117.593 107.568H118.825V114.31C118.825 115.006 118.661 115.627 118.333 116.174C118.008 116.718 117.549 117.147 116.956 117.462C116.363 117.773 115.667 117.929 114.868 117.929C114.069 117.929 113.373 117.773 112.78 117.462C112.187 117.147 111.726 116.718 111.398 116.174C111.073 115.627 110.911 115.006 110.911 114.31V107.568H112.144V114.21C112.144 114.707 112.253 115.15 112.472 115.538C112.691 115.922 113.002 116.225 113.406 116.447C113.814 116.666 114.301 116.776 114.868 116.776C115.435 116.776 115.922 116.666 116.33 116.447C116.737 116.225 117.049 115.922 117.264 115.538C117.483 115.15 117.593 114.707 117.593 114.21V107.568ZM129.362 107.568V117.75H128.168L122.62 109.756H122.521V117.75H121.288V107.568H122.481L128.049 115.582H128.148V107.568H129.362Z" fill="#404756"/>
<path d="M110.476 149.086C109.194 149.081 108.09 148.765 107.165 148.138C106.245 147.512 105.537 146.605 105.04 145.417C104.548 144.228 104.304 142.799 104.309 141.129C104.309 139.463 104.555 138.044 105.047 136.87C105.544 135.697 106.253 134.805 107.173 134.193C108.097 133.577 109.199 133.268 110.476 133.268C111.754 133.268 112.853 133.577 113.772 134.193C114.697 134.81 115.408 135.705 115.905 136.878C116.402 138.046 116.648 139.463 116.643 141.129C116.643 142.804 116.395 144.236 115.898 145.424C115.406 146.612 114.7 147.52 113.78 148.146C112.86 148.772 111.759 149.086 110.476 149.086ZM110.476 146.408C111.351 146.408 112.05 145.968 112.572 145.088C113.094 144.208 113.352 142.888 113.347 141.129C113.347 139.97 113.228 139.006 112.989 138.235C112.756 137.464 112.423 136.885 111.99 136.498C111.562 136.11 111.058 135.916 110.476 135.916C109.606 135.916 108.91 136.351 108.388 137.221C107.866 138.091 107.603 139.393 107.598 141.129C107.598 142.302 107.714 143.281 107.948 144.067C108.187 144.847 108.522 145.434 108.955 145.827C109.387 146.214 109.895 146.408 110.476 146.408ZM125.59 133.477V148.75H122.361V136.542H122.272L118.774 138.735V135.871L122.555 133.477H125.59Z" fill="#404756"/>
<rect x="161.812" y="84.3125" width="76.875" height="84.875" rx="7.4375" fill="white"/>
<rect x="161.812" y="84.3125" width="76.875" height="84.875" rx="7.4375" stroke="#D5DAE3" stroke-width="0.875"/>
<path d="M184.483 107.568H185.955L189.415 116.02H189.534L192.994 107.568H194.466V117.75H193.312V110.014H193.213L190.031 117.75H188.918L185.736 110.014H185.636V117.75H184.483V107.568ZM205.529 112.659C205.529 113.733 205.335 114.661 204.947 115.443C204.559 116.225 204.028 116.829 203.351 117.253C202.675 117.677 201.903 117.889 201.035 117.889C200.166 117.889 199.394 117.677 198.718 117.253C198.042 116.829 197.51 116.225 197.122 115.443C196.734 114.661 196.54 113.733 196.54 112.659C196.54 111.585 196.734 110.657 197.122 109.875C197.51 109.093 198.042 108.49 198.718 108.065C199.394 107.641 200.166 107.429 201.035 107.429C201.903 107.429 202.675 107.641 203.351 108.065C204.028 108.49 204.559 109.093 204.947 109.875C205.335 110.657 205.529 111.585 205.529 112.659ZM204.336 112.659C204.336 111.777 204.188 111.033 203.893 110.427C203.602 109.82 203.206 109.361 202.705 109.05C202.208 108.738 201.651 108.582 201.035 108.582C200.418 108.582 199.86 108.738 199.359 109.05C198.862 109.361 198.466 109.82 198.171 110.427C197.879 111.033 197.733 111.777 197.733 112.659C197.733 113.541 197.879 114.285 198.171 114.891C198.466 115.498 198.862 115.957 199.359 116.268C199.86 116.58 200.418 116.736 201.035 116.736C201.651 116.736 202.208 116.58 202.705 116.268C203.206 115.957 203.602 115.498 203.893 114.891C204.188 114.285 204.336 113.541 204.336 112.659ZM215.676 107.568V117.75H214.483L208.934 109.756H208.835V117.75H207.602V107.568H208.795L214.363 115.582H214.463V107.568H215.676Z" fill="#404756"/>
<path d="M193.476 149.086C192.194 149.081 191.09 148.765 190.165 148.138C189.245 147.512 188.537 146.605 188.04 145.417C187.548 144.228 187.304 142.799 187.309 141.129C187.309 139.463 187.555 138.044 188.047 136.87C188.544 135.697 189.253 134.805 190.173 134.193C191.097 133.577 192.199 133.268 193.476 133.268C194.754 133.268 195.853 133.577 196.772 134.193C197.697 134.81 198.408 135.705 198.905 136.878C199.402 138.046 199.648 139.463 199.643 141.129C199.643 142.804 199.395 144.236 198.898 145.424C198.406 146.612 197.7 147.52 196.78 148.146C195.86 148.772 194.759 149.086 193.476 149.086ZM193.476 146.408C194.351 146.408 195.05 145.968 195.572 145.088C196.094 144.208 196.352 142.888 196.347 141.129C196.347 139.97 196.228 139.006 195.989 138.235C195.756 137.464 195.423 136.885 194.99 136.498C194.562 136.11 194.058 135.916 193.476 135.916C192.606 135.916 191.91 136.351 191.388 137.221C190.866 138.091 190.603 139.393 190.598 141.129C190.598 142.302 190.714 143.281 190.948 144.067C191.187 144.847 191.522 145.434 191.955 145.827C192.387 146.214 192.895 146.408 193.476 146.408ZM201.946 148.75V146.423L207.382 141.39C207.845 140.942 208.233 140.539 208.546 140.181C208.864 139.824 209.105 139.473 209.269 139.13C209.433 138.782 209.515 138.407 209.515 138.004C209.515 137.556 209.413 137.171 209.209 136.848C209.006 136.52 208.727 136.269 208.374 136.095C208.021 135.916 207.621 135.826 207.174 135.826C206.706 135.826 206.299 135.921 205.951 136.11C205.603 136.299 205.334 136.57 205.145 136.923C204.956 137.276 204.862 137.696 204.862 138.183H201.797C201.797 137.184 202.023 136.316 202.475 135.58C202.928 134.844 203.562 134.275 204.377 133.873C205.192 133.47 206.132 133.268 207.196 133.268C208.29 133.268 209.242 133.462 210.052 133.85C210.867 134.233 211.501 134.765 211.954 135.446C212.406 136.127 212.632 136.908 212.632 137.788C212.632 138.364 212.518 138.934 212.289 139.495C212.066 140.057 211.665 140.681 211.089 141.367C210.512 142.048 209.699 142.866 208.65 143.821L206.42 146.006V146.11H212.834V148.75H201.946Z" fill="#404756"/>
<rect x="248.312" y="84.3125" width="71.875" height="84.875" rx="7.4375" fill="white"/>
<rect x="248.312" y="84.3125" width="71.875" height="84.875" rx="7.4375" stroke="#D5DAE3" stroke-width="0.875"/>
<path d="M270.426 108.662V107.568H278.062V108.662H274.861V117.75H273.628V108.662H270.426ZM286.647 107.568H287.88V114.31C287.88 115.006 287.716 115.627 287.388 116.174C287.063 116.718 286.604 117.147 286.011 117.462C285.418 117.773 284.722 117.929 283.923 117.929C283.124 117.929 282.428 117.773 281.835 117.462C281.241 117.147 280.781 116.718 280.453 116.174C280.128 115.627 279.965 115.006 279.965 114.31V107.568H281.198V114.21C281.198 114.707 281.308 115.15 281.526 115.538C281.745 115.922 282.057 116.225 282.461 116.447C282.869 116.666 283.356 116.776 283.923 116.776C284.49 116.776 284.977 116.666 285.384 116.447C285.792 116.225 286.104 115.922 286.319 115.538C286.538 115.15 286.647 114.707 286.647 114.21V107.568ZM290.342 117.75V107.568H296.487V108.662H291.575V112.102H296.169V113.196H291.575V116.656H296.567V117.75H290.342Z" fill="#404756"/>
<path d="M276.976 149.086C275.694 149.081 274.59 148.765 273.665 148.138C272.745 147.512 272.037 146.605 271.54 145.417C271.048 144.228 270.804 142.799 270.809 141.129C270.809 139.463 271.055 138.044 271.547 136.87C272.044 135.697 272.753 134.805 273.673 134.193C274.597 133.577 275.699 133.268 276.976 133.268C278.254 133.268 279.353 133.577 280.272 134.193C281.197 134.81 281.908 135.705 282.405 136.878C282.902 138.046 283.148 139.463 283.143 141.129C283.143 142.804 282.895 144.236 282.398 145.424C281.906 146.612 281.2 147.52 280.28 148.146C279.36 148.772 278.259 149.086 276.976 149.086ZM276.976 146.408C277.851 146.408 278.55 145.968 279.072 145.088C279.594 144.208 279.852 142.888 279.847 141.129C279.847 139.97 279.728 139.006 279.489 138.235C279.256 137.464 278.923 136.885 278.49 136.498C278.062 136.11 277.558 135.916 276.976 135.916C276.106 135.916 275.41 136.351 274.888 137.221C274.366 138.091 274.103 139.393 274.098 141.129C274.098 142.302 274.214 143.281 274.448 144.067C274.687 144.847 275.022 145.434 275.455 145.827C275.887 146.214 276.395 146.408 276.976 146.408ZM291.091 148.959C289.978 148.959 288.986 148.767 288.116 148.385C287.251 147.997 286.567 147.465 286.065 146.789C285.568 146.108 285.312 145.322 285.297 144.432H288.548C288.568 144.805 288.69 145.133 288.914 145.417C289.142 145.695 289.446 145.911 289.823 146.065C290.201 146.219 290.626 146.297 291.099 146.297C291.591 146.297 292.026 146.21 292.404 146.036C292.782 145.862 293.077 145.62 293.291 145.312C293.505 145.004 293.612 144.648 293.612 144.246C293.612 143.838 293.497 143.478 293.269 143.164C293.045 142.846 292.722 142.598 292.299 142.419C291.882 142.24 291.384 142.15 290.808 142.15H289.383V139.779H290.808C291.295 139.779 291.725 139.694 292.098 139.525C292.476 139.356 292.769 139.123 292.978 138.824C293.187 138.521 293.291 138.168 293.291 137.765C293.291 137.382 293.199 137.047 293.015 136.759C292.836 136.465 292.583 136.237 292.255 136.072C291.931 135.908 291.554 135.826 291.121 135.826C290.684 135.826 290.283 135.906 289.92 136.065C289.557 136.219 289.267 136.44 289.048 136.729C288.829 137.017 288.712 137.355 288.697 137.743H285.603C285.617 136.863 285.869 136.087 286.356 135.416C286.843 134.745 287.499 134.221 288.324 133.843C289.155 133.46 290.092 133.268 291.136 133.268C292.19 133.268 293.112 133.46 293.903 133.843C294.693 134.225 295.307 134.743 295.745 135.394C296.187 136.04 296.406 136.766 296.401 137.571C296.406 138.426 296.14 139.14 295.603 139.712C295.071 140.283 294.377 140.646 293.522 140.8V140.92C294.646 141.064 295.501 141.454 296.088 142.091C296.679 142.722 296.973 143.512 296.968 144.462C296.973 145.332 296.722 146.105 296.214 146.781C295.712 147.457 295.019 147.989 294.134 148.377C293.249 148.765 292.235 148.959 291.091 148.959Z" fill="#404756"/>
<rect x="329.812" y="84.3125" width="74.875" height="84.875" rx="7.4375" fill="white"/>
<rect x="329.812" y="84.3125" width="74.875" height="84.875" rx="7.4375" stroke="#D5DAE3" stroke-width="0.875"/>
<path d="M354.332 117.75L351.548 107.568H352.801L354.929 115.861H355.028L357.196 107.568H358.588L360.756 115.861H360.855L362.983 107.568H364.236L361.452 117.75H360.179L357.932 109.636H357.852L355.605 117.75H354.332ZM365.772 117.75V107.568H371.917V108.662H367.005V112.102H371.599V113.196H367.005V116.656H371.996V117.75H365.772ZM377.281 117.75H374.139V107.568H377.42C378.408 107.568 379.253 107.772 379.956 108.18C380.659 108.584 381.197 109.166 381.572 109.925C381.946 110.68 382.134 111.585 382.134 112.639C382.134 113.7 381.945 114.613 381.567 115.379C381.189 116.141 380.639 116.728 379.916 117.138C379.194 117.546 378.315 117.75 377.281 117.75ZM375.372 116.656H377.202C378.044 116.656 378.741 116.494 379.295 116.169C379.848 115.844 380.261 115.382 380.533 114.782C380.804 114.182 380.94 113.468 380.94 112.639C380.94 111.817 380.806 111.11 380.538 110.516C380.269 109.92 379.868 109.462 379.335 109.144C378.801 108.823 378.136 108.662 377.341 108.662H375.372V116.656Z" fill="#404756"/>
<path d="M359.976 149.086C358.694 149.081 357.59 148.765 356.665 148.138C355.745 147.512 355.037 146.605 354.54 145.417C354.048 144.228 353.804 142.799 353.809 141.129C353.809 139.463 354.055 138.044 354.547 136.87C355.044 135.697 355.753 134.805 356.673 134.193C357.597 133.577 358.699 133.268 359.976 133.268C361.254 133.268 362.353 133.577 363.272 134.193C364.197 134.81 364.908 135.705 365.405 136.878C365.902 138.046 366.148 139.463 366.143 141.129C366.143 142.804 365.895 144.236 365.398 145.424C364.906 146.612 364.2 147.52 363.28 148.146C362.36 148.772 361.259 149.086 359.976 149.086ZM359.976 146.408C360.851 146.408 361.55 145.968 362.072 145.088C362.594 144.208 362.852 142.888 362.847 141.129C362.847 139.97 362.728 139.006 362.489 138.235C362.256 137.464 361.923 136.885 361.49 136.498C361.062 136.11 360.558 135.916 359.976 135.916C359.106 135.916 358.41 136.351 357.888 137.221C357.366 138.091 357.103 139.393 357.098 141.129C357.098 142.302 357.214 143.281 357.448 144.067C357.687 144.847 358.022 145.434 358.455 145.827C358.887 146.214 359.395 146.408 359.976 146.408ZM368.215 146.065V143.522L374.591 133.477H376.783V136.997H375.486L371.466 143.358V143.478H380.527V146.065H368.215ZM375.545 148.75V145.29L375.605 144.164V133.477H378.633V148.75H375.545Z" fill="#404756"/>
<rect x="414.312" y="84.3125" width="72.875" height="84.875" rx="7.4375" fill="white"/>
<rect x="414.312" y="84.3125" width="72.875" height="84.875" rx="7.4375" stroke="#D5DAE3" stroke-width="0.875"/>
<path d="M436.426 108.662V107.568H444.062V108.662H440.861V117.75H439.628V108.662H436.426ZM445.965 117.75V107.568H447.198V112.102H452.627V107.568H453.86V117.75H452.627V113.196H447.198V117.75H445.965ZM463.01 107.568H464.243V114.31C464.243 115.006 464.079 115.627 463.751 116.174C463.426 116.718 462.967 117.147 462.374 117.462C461.781 117.773 461.085 117.929 460.286 117.929C459.487 117.929 458.791 117.773 458.198 117.462C457.605 117.147 457.144 116.718 456.816 116.174C456.491 115.627 456.329 115.006 456.329 114.31V107.568H457.562V114.21C457.562 114.707 457.671 115.15 457.89 115.538C458.108 115.922 458.42 116.225 458.824 116.447C459.232 116.666 459.719 116.776 460.286 116.776C460.853 116.776 461.34 116.666 461.748 116.447C462.155 116.225 462.467 115.922 462.682 115.538C462.901 115.15 463.01 114.707 463.01 114.21V107.568Z" fill="#404756"/>
<path d="M443.976 149.086C442.694 149.081 441.59 148.765 440.665 148.138C439.745 147.512 439.037 146.605 438.54 145.417C438.048 144.228 437.804 142.799 437.809 141.129C437.809 139.463 438.055 138.044 438.547 136.87C439.044 135.697 439.753 134.805 440.673 134.193C441.597 133.577 442.699 133.268 443.976 133.268C445.254 133.268 446.353 133.577 447.272 134.193C448.197 134.81 448.908 135.705 449.405 136.878C449.902 138.046 450.148 139.463 450.143 141.129C450.143 142.804 449.895 144.236 449.398 145.424C448.906 146.612 448.2 147.52 447.28 148.146C446.36 148.772 445.259 149.086 443.976 149.086ZM443.976 146.408C444.851 146.408 445.55 145.968 446.072 145.088C446.594 144.208 446.852 142.888 446.847 141.129C446.847 139.97 446.728 139.006 446.489 138.235C446.256 137.464 445.923 136.885 445.49 136.498C445.062 136.11 444.558 135.916 443.976 135.916C443.106 135.916 442.41 136.351 441.888 137.221C441.366 138.091 441.103 139.393 441.098 141.129C441.098 142.302 441.214 143.281 441.448 144.067C441.687 144.847 442.022 145.434 442.455 145.827C442.887 146.214 443.395 146.408 443.976 146.408ZM458.024 148.959C456.97 148.959 456.03 148.765 455.205 148.377C454.385 147.989 453.734 147.455 453.251 146.774C452.769 146.093 452.518 145.312 452.498 144.432H455.63C455.665 145.024 455.914 145.504 456.376 145.871C456.838 146.239 457.388 146.423 458.024 146.423C458.531 146.423 458.979 146.311 459.366 146.088C459.759 145.859 460.065 145.543 460.284 145.141C460.507 144.733 460.619 144.266 460.619 143.739C460.619 143.202 460.505 142.729 460.276 142.322C460.052 141.914 459.742 141.596 459.344 141.367C458.946 141.138 458.491 141.022 457.979 141.017C457.532 141.017 457.097 141.109 456.674 141.293C456.257 141.477 455.931 141.728 455.697 142.046L452.826 141.531L453.55 133.477H462.886V136.117H456.212L455.817 139.943H455.906C456.175 139.565 456.58 139.252 457.122 139.003C457.664 138.755 458.27 138.63 458.941 138.63C459.861 138.63 460.681 138.847 461.402 139.279C462.123 139.712 462.692 140.306 463.11 141.061C463.528 141.812 463.734 142.677 463.729 143.657C463.734 144.686 463.495 145.6 463.013 146.401C462.536 147.196 461.867 147.823 461.007 148.28C460.152 148.733 459.158 148.959 458.024 148.959Z" fill="#404756"/>
</g>
<defs>
<clipPath id="clip0_143_1185">
<rect width="371" height="87.5" fill="white" transform="translate(78 83)"/>
</clipPath>
</defs>
</svg>
