<svg width="20" height="20" viewBox="0 0 20 20" fill="none" xmlns="http://www.w3.org/2000/svg">
<path d="M3.33325 7.5V15.8333C3.33325 16.2754 3.50885 16.6993 3.82141 17.0118C4.13397 17.3244 4.55789 17.5 4.99992 17.5H14.9999C15.4419 17.5 15.8659 17.3244 16.1784 17.0118C16.491 16.6993 16.6666 16.2754 16.6666 15.8333V7.5M3.33325 7.5V5.83333C3.33325 5.39131 3.50885 4.96738 3.82141 4.65482C4.13397 4.34226 4.55789 4.16667 4.99992 4.16667H6.66659M3.33325 7.5H16.6666M16.6666 7.5V5.83333C16.6666 5.39131 16.491 4.96738 16.1784 4.65482C15.8659 4.34226 15.4419 4.16667 14.9999 4.16667H13.3333M6.66659 4.16667H13.3333M6.66659 4.16667V2.5M13.3333 4.16667V2.5" stroke="black" stroke-width="1.5" stroke-linecap="round" stroke-linejoin="round"/>
</svg>
