<svg width="36" height="33" viewBox="0 0 36 33" fill="none" xmlns="http://www.w3.org/2000/svg">
<path id="Vector" fill-rule="evenodd" clip-rule="evenodd" d="M5.24805 0.830684C1.78384 2.65819 0 5.56883 0 9.39496V11.8451L2.4111 12.1644C3.73711 12.34 5.25554 12.811 5.78485 13.2106C6.31415 13.6107 6.91792 13.945 7.12635 13.9535C7.33477 13.9625 8.3399 12.2856 9.36001 10.2276C11.9076 5.08887 12.4948 5.21709 14.5156 11.3502C16.3359 16.8741 16.8042 17.6404 17.2581 15.8349C17.7804 13.7579 19.5747 12.4752 22.4287 12.1375C23.8541 11.9693 25.1391 11.6391 25.2846 11.4036C25.6789 10.767 28.2 10.8867 28.8892 11.5747C29.2191 11.904 29.489 12.7571 29.489 13.4706C29.489 14.184 29.2191 15.0371 28.8892 15.3664C28.1625 16.0918 25.6699 16.1597 25.2406 15.4662C25.0707 15.1918 23.8561 14.9673 22.5411 14.9673H20.1505L18.778 18.4596C16.7548 23.6069 16.0335 23.3205 13.7439 16.4605C12.7358 13.4406 11.7546 11.0658 11.5637 11.1836C11.3728 11.3013 10.5636 12.7621 9.76486 14.4295C8.14897 17.8051 7.32078 18.1513 5.49795 16.2146C4.2969 14.9388 0.999628 14.408 0.999628 15.4911C0.999628 17.5885 7.20582 25.2812 12.3599 29.5724C17.7694 34.076 18.4011 34.0705 23.7731 29.4766C28.5419 25.398 32.341 20.9093 34.3072 17.0303C36.2145 13.268 36.5589 8.06387 35.0909 5.19315C33.2611 1.61447 30.4552 0 26.0653 0C23.5068 0 22.7365 0.238978 20.5424 1.71226L17.9933 3.42501L15.4443 1.71226C13.2126 0.213533 12.5113 0.00249453 9.82134 0.0199564C8.01602 0.0319302 6.12872 0.366199 5.24805 0.830684Z" fill="white"/>
</svg>
